<svg width="1500" height="1253" viewBox="0 0 1500 1253" fill="none" xmlns="http://www.w3.org/2000/svg">
<path d="M939.513 597.548C924.894 547.677 910.456 497.65 896.148 447.442C866.909 345.159 837.049 243.213 806.566 141.552L801.33 123.926C793.398 102.335 789.251 86.9118 788.94 77.7359C788.629 68.56 788.448 63.6092 788.448 62.9612C788.448 45.4907 795.913 24.5468 810.843 0.0518399H604.074C633.598 23.5618 654.645 46.1128 667.191 67.7046C679.737 89.2965 690.779 117.446 700.292 152.024L715.066 202.984L600.212 597.496L557.806 450.734C528.231 347.155 498.085 244.12 467.265 141.501L461.537 123.875C453.605 102.283 449.536 86.86 449.406 77.6841C449.25 68.4823 449.147 63.5573 449.147 62.9093C449.147 45.4388 456.612 24.495 471.542 0H264.773C294.297 23.51 315.345 46.0609 327.89 67.6528C340.436 89.2447 351.478 117.394 360.991 151.973L516.825 687.985H584.478L720.769 222.01L856.1 687.985H924.22L989.047 464.549C994.698 445.083 1000.35 425.616 1006.05 406.15C1002.94 404.439 999.934 402.599 996.953 400.759C977.875 466.338 958.746 531.917 939.513 597.444V597.522V597.548Z" fill="white"/>
<path d="M1071.64 198.524L1060.65 270.013C1065.94 250.392 1073.51 235.928 1083.31 226.596C1093.13 217.239 1104.54 211.251 1117.52 208.608C1130.56 205.964 1144.48 204.616 1159.28 204.616H1170.56V367.086C1156.07 373.877 1140.49 377.247 1123.82 377.247C1098.01 377.247 1073.95 369.367 1051.79 353.607C1027.97 335.282 1010.86 312.109 1000.39 284.062C989.917 256.016 984.603 227.452 984.448 198.291L984.189 178.488C984.189 164.931 984.707 149.327 985.848 131.623C986.936 113.92 990.928 95.4899 997.823 76.2309C1004.69 56.9719 1016.12 40.5123 1032.04 26.7485C1049.07 13.5549 1066.41 6.94513 1083.98 6.94513C1088.03 6.94513 1096.55 8.11156 1109.54 10.3926C1122.58 12.6736 1137.82 22.1346 1155.32 38.6979C1172.81 55.2612 1185.62 74.6757 1193.68 96.8378V24.8044C1168.74 11.0406 1141.01 3.0052 1110.37 0.594584C1105.42 0.231695 1100.55 0.0761719 1095.78 0.0761719C1070.48 0.0761719 1046.84 5.31213 1024.83 15.7581C990.747 33.1768 965.163 58.7604 948.133 92.4572C931.829 124.728 923.664 158.788 923.664 194.74C923.664 235.254 933.462 273.072 953.084 308.272C971.565 341.995 998.886 367.294 1034.99 384.168C1055.52 392.799 1075.87 397.102 1096.04 397.102C1111.46 397.102 1126.83 394.51 1142.23 389.404C1160.19 382.431 1175.92 378.958 1189.51 378.958C1203.09 378.958 1216.72 384.997 1231 397.102V198.628H1071.52L1071.64 198.524Z" fill="white"/>
<path d="M235.148 1195.69C237.533 1186.96 240.876 1180.5 245.231 1176.35C249.586 1172.21 254.692 1169.51 260.472 1168.34C266.253 1167.15 272.448 1166.56 279.057 1166.56H284.086V1238.85C277.632 1241.86 270.737 1243.38 263.298 1243.38C251.789 1243.38 241.11 1239.89 231.26 1232.86C220.632 1224.7 213.038 1214.38 208.372 1201.91C203.706 1189.44 201.373 1176.72 201.27 1163.76L201.14 1154.97C201.14 1148.93 201.373 1141.98 201.866 1134.1C202.358 1126.22 204.121 1118.03 207.179 1109.43C210.212 1100.87 215.319 1093.51 222.421 1087.39C229.99 1081.51 237.688 1078.61 245.542 1078.61C247.33 1078.61 251.141 1079.1 256.921 1080.14C262.701 1081.17 269.519 1085.37 277.295 1092.73C285.071 1100.1 290.748 1108.73 294.35 1118.6V1086.57C283.282 1080.45 270.892 1076.87 257.284 1075.81C255.081 1075.65 252.929 1075.55 250.804 1075.55C239.554 1075.55 229.056 1077.86 219.258 1082.52C204.069 1090.27 192.716 1101.63 185.121 1116.66C177.889 1131.02 174.234 1146.18 174.234 1162.15C174.234 1180.16 178.589 1197.01 187.324 1212.67C195.567 1227.68 207.724 1238.93 223.769 1246.44C232.893 1250.28 241.965 1252.2 250.908 1252.2C257.751 1252.2 264.594 1251.03 271.437 1248.75C279.446 1245.64 286.445 1244.11 292.458 1244.11C298.472 1244.11 304.563 1246.78 310.94 1252.17V1163.83H239.995L235.096 1195.64L235.148 1195.69Z" fill="white"/>
<path d="M455.004 1214.04L414.75 1075.55H373.873C381.105 1081.74 386.807 1089.08 390.877 1097.58L379.368 1137.6C364.464 1191.34 354.173 1224.75 348.548 1237.81C345.593 1244.5 342.561 1249.32 339.398 1252.22H356.299C355.469 1249.55 355.08 1246.31 355.08 1242.56C355.08 1240.51 355.21 1238.25 355.443 1235.84C356.169 1229.23 357.128 1223.87 358.243 1219.69L367.315 1188.51V1188.15C367.315 1188.15 367.445 1188.12 367.445 1188.02V1187.66C367.445 1187.66 367.6 1187.55 367.678 1187.42V1187.19C367.678 1186.96 367.704 1186.8 367.807 1186.7L367.937 1186.2L368.43 1184.62L418.586 1185.12L418.819 1186.2L419.312 1187.66L419.441 1188.38L419.804 1189.47C421.748 1196.47 423.796 1203.49 425.921 1210.49C428.047 1217.18 429.265 1222.65 429.602 1226.95C429.939 1231.25 430.095 1233.9 430.095 1234.96C430.095 1241.16 428.539 1246.91 425.455 1252.22H478.54C468.094 1243.44 460.292 1230.68 455.056 1214.07H454.978L455.004 1214.04ZM369.129 1181.82L392.613 1101.21C396.061 1108.78 403.993 1134.34 416.46 1177.91L417.679 1182.32L369.103 1181.82H369.129Z" fill="white"/>
<path d="M638.785 1226.51C636.763 1223.17 634.352 1218.97 631.579 1213.91C626.628 1204.68 621.029 1195.4 614.808 1186.05C608.613 1176.66 602.651 1170.6 596.949 1167.83C593.942 1166.66 590.832 1165.7 587.669 1164.87C583.6 1163.81 579.608 1162.43 575.694 1160.7C571.78 1158.99 568.151 1156.26 564.807 1152.51C569.447 1155.02 574.243 1156.58 579.116 1157.09C583.989 1157.61 588.24 1157.9 591.843 1157.9C594.046 1157.9 596.249 1157.82 598.452 1157.66C612.735 1156.26 624.114 1151.78 632.59 1144.21C641.066 1136.64 645.421 1127.44 645.68 1116.71C645.446 1107.25 642.647 1099.47 637.281 1093.41C631.916 1087.34 625.254 1082.86 617.167 1079.95C609.106 1077.05 600.863 1075.6 592.465 1075.6H511.852C520.094 1084.67 524.293 1097.92 524.449 1115.34C524.838 1131.64 525.071 1147.87 525.071 1164.01C525.071 1180.16 524.864 1196.39 524.449 1212.46C524.293 1229.93 520.094 1243.15 511.852 1252.2H564.937C556.694 1243.12 552.495 1229.9 552.34 1212.46C552.003 1195.59 551.847 1178.56 551.847 1161.47V1139.57C553.636 1142.68 555.891 1146.03 558.561 1149.6C563.382 1156.11 575.59 1175.47 595.264 1207.61L609.443 1230.73C612.449 1235.56 613.979 1240.58 613.979 1245.92C613.979 1248.05 613.746 1250.15 613.253 1252.27H666.338C655.555 1245.48 646.405 1236.93 638.837 1226.59H638.811L638.785 1226.51ZM551.821 1132.42V1078.22H592.439C597.156 1078.22 601.2 1079.41 604.544 1081.82C607.887 1084.23 610.557 1087.34 612.605 1091.1C614.653 1094.91 616.156 1099.03 617.141 1103.49C618.1 1108 618.593 1112.36 618.593 1116.58C618.593 1121.87 617.711 1127.29 615.949 1132.78C614.186 1138.28 611.594 1143.1 608.173 1147.24C604.725 1151.34 600.5 1153.88 595.446 1154.89H595.316C594.979 1154.99 594.616 1155.02 594.227 1155.02C592.102 1155.25 590.002 1155.38 587.851 1155.38C580.904 1155.38 574.424 1154.04 568.41 1151.34C560.582 1147.84 555.061 1141.52 551.769 1132.39H551.847L551.821 1132.42Z" fill="white"/>
<path d="M814.5 1099.76C804.935 1092.01 794.256 1086.07 782.384 1081.9C770.513 1077.73 758.304 1075.63 745.732 1075.52H699.594C707.837 1084.75 712.036 1098.02 712.191 1115.26C712.528 1130.16 712.71 1146.42 712.813 1163.94C712.71 1181.46 712.528 1197.64 712.191 1212.38C712.036 1229.67 707.837 1242.94 699.594 1252.12H745.732C762.684 1252.02 778.729 1248.36 793.893 1241.05C809.005 1233.74 821.395 1223.53 831.037 1210.36C840.68 1197.19 845.63 1181.69 845.942 1163.81C845.942 1150.51 843.09 1138.43 837.388 1127.6C831.711 1116.76 824.064 1107.46 814.5 1099.73V1099.76ZM809.99 1204.71C804.106 1217.67 795.733 1228.33 784.847 1236.65C773.96 1244.94 760.948 1249.24 745.758 1249.48H739.771V1078.22H745.758C760.948 1078.56 773.96 1082.86 784.924 1091.18C795.837 1099.5 804.235 1110.15 810.067 1123.11C815.9 1136.07 818.855 1149.66 818.932 1163.86C818.855 1178.14 815.9 1191.73 810.016 1204.74L809.99 1204.71Z" fill="white"/>
<path d="M950.841 1078.22C957.451 1078.22 963.646 1078.81 969.426 1080.01C975.206 1081.2 980.313 1083.87 984.667 1088.02C989.022 1092.16 992.417 1098.64 994.75 1107.35L989.851 1075.55H874.375C882.618 1084.78 886.817 1098.05 886.972 1115.29C887.309 1131.43 887.465 1147.63 887.465 1163.86C887.465 1180.09 887.309 1196.21 886.972 1212.44C886.817 1229.72 882.618 1243 874.375 1252.17H989.851L994.75 1220.37C992.366 1229.1 989.022 1235.56 984.667 1239.7C980.313 1243.85 975.206 1246.55 969.426 1247.71C963.646 1248.91 957.451 1249.5 950.841 1249.5H914.5V1165.21H942.002C947.964 1165.21 953.277 1165.73 957.969 1166.79C962.661 1167.85 966.497 1170.06 969.555 1173.48C972.562 1176.85 974.429 1181.95 975.051 1188.72V1139.18C974.377 1145.87 972.562 1150.93 969.555 1154.3C966.549 1157.67 962.687 1159.89 957.969 1160.93C953.251 1161.97 948.249 1162.51 942.857 1162.51H914.474V1078.22H950.815H950.841Z" fill="white"/>
<path d="M1152.12 1084.54C1153.19 1088.74 1154.02 1093.07 1154.56 1097.58C1155.29 1104.37 1155.65 1134.96 1155.65 1189.31L1155.52 1246.68L1060.47 1075.55H1028.02C1036.03 1084.44 1040.22 1097.5 1040.61 1114.71L1040.85 1130.5V1153.26C1040.85 1197.79 1040.48 1223.4 1039.76 1230.09C1039.19 1234.65 1038.36 1239.06 1037.32 1243.26C1036.28 1247.45 1034.94 1250.46 1033.41 1252.25H1050.41C1047.9 1248.02 1046.11 1242.68 1045.1 1236.28C1044.06 1229.85 1043.57 1224.28 1043.57 1219.46V1097.24L1128.1 1252.25H1158.19V1108.39C1158.19 1103.59 1158.68 1097.97 1159.72 1091.52C1160.76 1085.06 1162.52 1079.77 1165.03 1075.6H1148.13C1149.69 1077.39 1150.98 1080.4 1152.05 1084.6H1152.12V1084.54Z" fill="white"/>
<path d="M1314.37 1180.94C1308.98 1174.62 1302.58 1169.15 1295.04 1164.48C1287.21 1159.66 1278.39 1154.81 1268.62 1149.94C1258.82 1145.04 1251.07 1140.82 1245.24 1137.21C1231.56 1128.89 1224.71 1120.26 1224.71 1111.29L1224.84 1109.58C1225.67 1098.8 1229.61 1090.76 1236.71 1085.48C1243.32 1080.58 1251.02 1078.14 1259.84 1078.14C1260.64 1078.14 1263.75 1078.27 1269.11 1078.58C1274.48 1078.89 1281.71 1082.39 1290.78 1089.11C1299.86 1095.82 1306.7 1105.85 1311.31 1119.12L1311.68 1087.08C1304.34 1082.91 1295.29 1079.75 1284.67 1077.52C1276.42 1075.89 1268.08 1075.08 1259.58 1075.08C1256.91 1075.08 1252.06 1075.32 1245.09 1075.76C1238.11 1076.22 1230.18 1078.66 1221.24 1083.09C1212.32 1087.52 1205.92 1094.34 1202.08 1103.47C1200.3 1108.18 1199.41 1112.9 1199.41 1117.51C1199.41 1122.13 1200.35 1127.13 1202.21 1131.98C1206.44 1141.34 1212.84 1148.98 1221.37 1154.79C1229.9 1160.62 1238.79 1165.7 1248.09 1170.03C1251.2 1171.48 1255.56 1173.71 1261.18 1176.64C1268.52 1180.09 1275.8 1184.23 1283.01 1189.18C1290.21 1194.11 1295.22 1200.3 1297.99 1207.69C1298.87 1210.85 1299.34 1213.94 1299.34 1216.84C1299.34 1221.74 1297.71 1226.82 1294.44 1232.08C1291.17 1237.35 1285.55 1241.65 1277.54 1244.99C1271.42 1247.51 1264.84 1248.8 1257.84 1248.8C1255.71 1248.8 1251.75 1248.47 1245.97 1247.82C1240.19 1247.14 1233.14 1243.62 1224.87 1237.16C1216.6 1230.71 1210.09 1221.02 1205.35 1208.05L1205.12 1240.09C1219.4 1248.1 1235.86 1252.07 1254.52 1252.07C1264.47 1252.07 1273.99 1250.72 1283.16 1248.02C1295.55 1244.34 1305.71 1238.69 1313.62 1231.02C1320.72 1224.07 1324.27 1215.91 1324.27 1206.42L1324.14 1203.39C1322.98 1194.76 1319.74 1187.24 1314.35 1180.94V1181.02L1314.37 1180.94Z" fill="white"/>
<path d="M211.227 886.093C212.523 881.583 214.778 875.802 217.915 868.674C221.051 861.546 224.161 856.517 227.272 853.562H210.372C211.201 856.284 211.59 859.421 211.59 862.998C211.59 864.942 211.46 867.041 211.227 869.219C210.657 875.595 209.776 880.935 208.557 885.263C196.893 925.881 185.099 966.447 173.202 1006.99C169.443 994.182 165.736 981.325 162.056 968.469C154.539 942.211 146.866 916.031 139.038 889.929L137.69 885.393C135.643 879.846 134.58 875.906 134.528 873.521C134.424 871.163 134.398 869.893 134.398 869.711C134.398 865.201 136.316 859.861 140.153 853.562H87.0673C94.6362 859.602 100.054 865.408 103.268 870.929C106.508 876.476 109.307 883.682 111.77 892.599L115.58 905.689L86.0824 1006.99L75.1957 969.324C67.6269 942.729 59.8507 916.29 51.9449 889.929L50.4934 885.393C48.4456 879.846 47.4088 875.906 47.3829 873.521C47.357 871.163 47.3051 869.893 47.3051 869.711C47.3051 865.201 49.2232 859.861 53.0595 853.562H0C7.56882 859.602 12.9862 865.408 16.2004 870.929C19.4145 876.476 22.2399 883.682 24.7023 892.599L64.7238 1030.24H82.0906L117.083 910.588L151.843 1030.24H169.339L185.98 972.875C194.379 943.948 202.803 914.994 211.305 886.145H211.279L211.227 886.093Z" fill="white"/>
<path d="M260.588 1030.21H376.065L380.964 998.406C378.605 1007.14 375.235 1013.6 370.881 1017.72C366.526 1021.89 361.42 1024.56 355.639 1025.73C349.859 1026.92 343.664 1027.51 337.054 1027.51H300.714V943.221H328.215C334.177 943.221 339.491 943.739 344.182 944.802C348.874 945.865 352.71 948.068 355.769 951.49C358.776 954.859 360.642 959.966 361.264 966.731V917.197C360.59 923.884 358.776 928.939 355.769 932.308C352.762 935.704 348.9 937.933 344.182 938.996C339.491 940.059 334.462 940.577 329.071 940.577H300.688V856.283H337.028C343.638 856.283 349.833 856.879 355.613 858.072C361.394 859.264 366.5 861.934 370.855 866.081C375.209 870.228 378.605 876.709 380.938 885.418L376.039 853.613H260.562C268.805 862.841 273.004 876.112 273.16 893.35C273.497 909.498 273.652 925.699 273.652 941.925C273.652 958.151 273.497 974.274 273.16 990.5C273.004 1007.79 268.805 1021.06 260.562 1030.24L260.588 1030.21Z" fill="white"/>
<path d="M439.357 877.773C451.928 898.25 464.215 918.779 476.294 939.412C476.294 956.546 476.138 973.55 475.801 990.45C475.801 1007.74 471.628 1021.01 463.333 1030.19H516.056C511.416 1025.05 508.176 1019.04 506.387 1012.12C504.599 1005.25 503.64 997.993 503.588 990.398C503.251 969.687 503.096 948.795 503.096 927.774C505.869 923.056 508.565 918.313 511.157 913.595C521.836 893.947 532.36 877.669 542.728 864.787C546.953 859.551 550.764 855.818 554.107 853.537H537.337V853.9C537.337 857.347 536.378 861.443 534.46 866.264C532.541 871.085 530.494 875.414 528.264 879.354L500.244 927.178L493.764 916.291C485.444 901.931 476.968 887.726 468.336 873.6C465.381 868.701 463.93 863.491 463.93 857.97C463.93 856.518 464.033 855.015 464.163 853.563H414.266C424.064 860.069 432.41 868.156 439.331 877.799L439.357 877.773Z" fill="white"/>
<path d="M712.683 1008.13C718.8 1000.92 721.963 992.082 722.248 981.636C722.092 972.563 719.811 964.813 715.431 958.333C711.05 951.853 705.348 946.617 698.297 942.625C691.247 938.633 683.652 935.912 675.487 934.434C685.907 932.412 695.005 928.058 702.704 921.396C710.402 914.76 714.472 905.844 714.86 894.672C714.627 885.211 711.828 877.435 706.462 871.369C701.097 865.304 694.435 860.82 686.348 857.917C678.286 855.039 670.044 853.588 661.645 853.588H587.383C595.626 862.816 599.825 876.087 599.98 893.324C600.317 909.473 600.473 925.673 600.473 941.899C600.473 958.126 600.317 974.248 599.98 990.475C599.825 1007.95 595.626 1021.16 587.383 1030.21H661.645C671.106 1030.21 680.464 1028.32 689.666 1024.59C698.893 1020.85 706.566 1015.36 712.683 1008.13ZM627.404 856.232H661.671C674.243 856.569 682.252 863.541 685.648 877.176C687.099 883.06 687.851 889.125 687.851 895.398C687.851 901.671 686.685 908.514 684.456 915.201C682.175 921.889 678.209 926.969 672.584 930.468C669.318 932.024 665.715 932.775 661.697 932.775C659.805 932.775 657.861 932.62 655.813 932.283C649.359 931.298 643.968 929.432 639.665 926.658C633.884 923.081 629.815 917.223 627.43 909.162V856.18H627.404V856.232ZM691.817 1002.61C689.562 1009.58 685.985 1015.44 681.112 1020.15C676.213 1024.87 669.733 1027.33 661.671 1027.49H627.404V916.782C630.022 922.018 633.599 926.062 638.187 929.017C641.764 931.22 645.367 932.723 648.944 933.553C652.547 934.382 656.047 934.953 659.468 935.264C664.419 935.601 669.136 936.586 673.517 938.219C681.267 941.899 686.814 947.809 690.158 956C693.502 964.191 695.187 972.538 695.187 981.039C695.187 988.453 694.072 995.659 691.817 1002.63H691.843L691.817 1002.61Z" fill="white"/>
<path d="M902.49 1030.21C891.707 1023.42 882.557 1014.86 874.988 1004.52C872.966 1001.18 870.556 996.98 867.782 991.925C862.831 982.697 857.232 973.418 851.011 964.061C844.816 954.677 838.855 948.612 833.152 945.838C830.145 944.672 827.035 943.713 823.872 942.883C819.803 941.821 815.811 940.447 811.897 938.71C807.983 936.999 804.354 934.278 801.01 930.519C805.65 933.034 810.446 934.589 815.319 935.107C820.218 935.626 824.443 935.911 828.046 935.911C830.249 935.911 832.452 935.807 834.655 935.677C848.938 934.278 860.317 929.793 868.793 922.225C877.269 914.656 881.624 905.454 881.883 894.723C881.65 885.262 878.85 877.486 873.485 871.42C868.119 865.355 861.457 860.871 853.37 857.967C845.309 855.09 837.066 853.639 828.668 853.639H748.055C756.297 862.711 760.497 875.956 760.652 893.375C761.041 909.679 761.274 925.905 761.274 942.054C761.274 958.202 761.067 974.429 760.652 990.499C760.497 1007.97 756.297 1021.19 748.055 1030.24H801.14C792.897 1021.16 788.698 1007.94 788.543 990.499C788.206 973.599 788.05 956.595 788.05 939.462V917.559C789.839 920.669 792.094 924.013 794.764 927.59C799.585 934.096 811.793 953.459 831.467 985.601L845.646 1008.72C848.653 1013.54 850.182 1018.57 850.182 1023.91C850.182 1026.04 849.949 1028.14 849.456 1030.26H902.542H902.516L902.49 1030.21ZM787.972 910.431V856.231H828.59C833.308 856.231 837.351 857.423 840.695 859.834C844.039 862.244 846.709 865.355 848.756 869.113C850.778 872.924 852.307 877.045 853.292 881.503C854.251 886.014 854.744 890.368 854.744 894.593C854.744 899.881 853.863 905.298 852.1 910.794C850.337 916.289 847.771 921.11 844.324 925.205C840.876 929.327 836.651 931.893 831.597 932.852H831.467C831.13 932.93 830.767 932.982 830.353 932.982C828.227 933.215 826.128 933.345 824.002 933.345C817.055 933.345 810.575 931.997 804.562 929.301C796.734 925.802 791.161 919.477 787.921 910.353H787.998L787.972 910.431Z" fill="white"/>
<path d="M935.812 1030.21H988.898C980.655 1020.98 976.456 1007.71 976.3 990.474C975.964 974.403 975.808 958.255 975.808 942.029C975.808 925.802 975.964 909.654 976.3 893.35C976.456 875.879 980.655 862.66 988.898 853.613H935.812C944.055 862.685 948.254 875.931 948.41 893.35C948.799 909.654 949.032 925.88 949.032 942.029C949.032 958.177 948.825 974.403 948.41 990.474C948.254 1007.94 944.055 1021.16 935.812 1030.21Z" fill="white"/>
<path d="M1137.07 877.773C1127.51 870.023 1116.83 864.087 1104.95 859.914C1093.08 855.74 1080.87 853.641 1068.3 853.537H1022.16C1030.41 862.765 1034.61 876.036 1034.76 893.273C1035.1 908.178 1035.28 924.43 1035.38 941.952C1035.28 959.475 1035.1 975.649 1034.76 990.398C1034.61 1007.69 1030.41 1020.96 1022.16 1030.13H1068.3C1085.25 1030.03 1101.3 1026.38 1116.46 1019.07C1131.63 1011.76 1143.96 1001.54 1153.61 988.376C1163.25 975.209 1168.2 959.708 1168.51 941.823C1168.51 928.525 1165.66 916.446 1159.96 905.612C1154.28 894.777 1146.63 885.471 1137.07 877.747V877.773ZM1132.56 982.725C1126.68 995.686 1118.3 1006.34 1107.42 1014.63C1096.53 1022.95 1083.52 1027.23 1068.33 1027.46H1062.34V856.207H1068.33C1083.52 856.544 1096.53 860.847 1107.49 869.167C1118.41 877.488 1126.81 888.141 1132.64 901.101C1138.47 914.062 1141.42 927.644 1141.5 941.849C1141.42 956.131 1138.47 969.713 1132.59 982.725H1132.56Z" fill="white"/>
<path d="M1270.48 973.704C1272.86 964.969 1276.2 958.514 1280.56 954.367C1284.91 950.194 1290.02 947.524 1295.8 946.358C1301.58 945.165 1307.78 944.569 1314.39 944.569H1319.41V1016.86C1312.96 1019.87 1306.06 1021.4 1298.63 1021.4C1287.12 1021.4 1276.44 1017.9 1266.59 1010.87C1255.96 1002.71 1248.37 992.393 1243.7 979.925C1239.03 967.457 1236.7 954.73 1236.6 941.77L1236.47 932.983C1236.47 926.943 1236.7 919.996 1237.19 912.117C1237.69 904.237 1239.45 896.046 1242.51 887.44C1245.54 878.886 1250.65 871.525 1257.75 865.408C1265.32 859.524 1273.02 856.621 1280.87 856.621C1282.66 856.621 1286.47 857.113 1292.25 858.15C1298.03 859.187 1304.85 863.386 1312.62 870.747C1320.4 878.109 1326.08 886.74 1329.68 896.616V864.578C1318.61 858.461 1306.22 854.884 1292.61 853.821C1290.41 853.666 1288.26 853.588 1286.13 853.588C1274.88 853.588 1264.38 855.895 1254.59 860.561C1239.4 868.311 1228.04 879.664 1220.45 894.698C1213.22 909.058 1209.56 924.221 1209.56 940.189C1209.56 958.203 1213.92 975.052 1222.65 990.708C1230.9 1005.72 1243.05 1016.97 1259.1 1024.48C1268.22 1028.32 1277.29 1030.24 1286.24 1030.24C1293.08 1030.24 1299.92 1029.07 1306.76 1026.79C1314.77 1023.7 1321.77 1022.15 1327.79 1022.15C1333.8 1022.15 1339.89 1024.82 1346.27 1030.21V941.873H1275.32L1270.42 973.678L1270.48 973.704Z" fill="white"/>
<path d="M1474.7 1025.75C1468.92 1026.94 1462.73 1027.54 1456.12 1027.54H1419.78V943.246H1447.28C1453.24 943.246 1458.55 943.765 1463.24 944.827C1467.94 945.89 1471.77 948.093 1474.83 951.515C1477.84 954.885 1479.7 959.991 1480.33 966.756V917.222C1479.65 923.909 1477.84 928.964 1474.83 932.334C1471.82 935.729 1467.96 937.958 1463.24 939.021C1458.55 940.084 1453.52 940.602 1448.13 940.602H1419.75V856.308H1456.09C1462.7 856.308 1468.9 856.905 1474.68 858.097C1480.46 859.289 1485.51 861.959 1489.92 866.106C1494.27 870.28 1497.67 876.734 1500 885.443L1495.1 853.639H1379.62C1387.87 862.866 1392.07 876.138 1392.22 893.375C1392.56 909.523 1392.72 925.724 1392.72 941.95C1392.72 958.177 1392.56 974.299 1392.22 990.525C1392.07 1007.81 1387.87 1021.09 1379.62 1030.26H1495.1L1500 998.457C1497.62 1007.19 1494.27 1013.65 1489.92 1017.77C1485.56 1021.94 1480.46 1024.61 1474.68 1025.78L1474.7 1025.75Z" fill="white"/>
</svg>
